<?xml version="1.0" encoding="utf-8"?>
<!-- Generator: Adobe Illustrator 21.0.0, SVG Export Plug-In . SVG Version: 6.00 Build 0)  -->
<svg version="1.1" id="레이어_1" xmlns="http://www.w3.org/2000/svg" xmlns:xlink="http://www.w3.org/1999/xlink" x="0px"
	 y="0px" viewBox="0 0 229 99.9" style="enable-background:new 0 0 229 99.9;" xml:space="preserve">
<style type="text/css">
	.st0{fill:#FFFFFF;}
</style>
<title>Logo_height100</title>
<path class="st0" d="M72,50.8H60.8c-4.2-0.2-8.4-1.1-12.2-2.8C42.8,45.3,38,39.4,38,39.4L10.2,0H25c0,0,6.5,0.6,11.3,3.3
	C40.2,5.5,47,15.8,47,15.8L72,50.8z"/>
<path class="st0" d="M73.5,50.8h7.1c1.6-0.1,3.2-0.4,4.7-1.1c1.6-0.8,3-2,4.1-3.4L100.2,31h-2.6c0,0-5.9-0.2-9.9,2.6
	s-8.4,8.9-8.4,8.9L73.5,50.8z"/>
<path class="st0" d="M155.7,33.6h11.1c4.6,0.1,9,1.2,13.1,3.3c3.8,2.3,7.1,5.2,9.8,8.7L229,99.8h-15.1c0,0-7.8,0.2-11.6-3.3
	c-3-2.9-5.6-6.1-8-9.5L155.7,33.6z"/>
<path class="st0" d="M95.3,50h13.2c1.1,0,2.1-0.2,3.1-0.6c0.8-0.4,1.5-1,1.9-1.7l4.9-7.1l-6.5-9.3h-0.6c-0.9-0.1-1.8,0.1-2.6,0.4
	c-0.8,0.4-1.4,1-1.9,1.7L95.3,50z"/>
<path class="st0" d="M147,55c0.6-0.1,1.2-0.3,1.8-0.7c0.7-0.5,1.3-1.2,1.8-1.9l7.6-10.9l-5.4-7.9l-10.3,14.7L135.2,38
	c-1.2-2-2.8-3.7-4.8-5c-3-1.9-7.6-1.8-7.6-1.8H115l13,18.4c1.3,1.7,2.9,3.1,4.8,4.1c1.9,0.9,3.9,1.3,5.9,1.2"/>
<path class="st0" d="M5.8,79.1L5.2,77L0.1,62.8h2.3l0.4,1.3C2.9,64.4,3,64.7,3.1,65l4.2,12.3l6-12.3c0.1-0.3,0.3-0.6,0.4-0.8
	c0.1-0.3,0.3-0.7,0.6-1.3h2.4C16,64.2,15,66,13.8,68.3l-3.1,6C9.9,76,9.1,77.6,8.5,79H7.1L5.8,79.1z"/>
<path class="st0" d="M16.7,79.1l0.2-3l0.2-5.1l0.1-3.9h2.2c-0.1,1.2-0.2,2.5-0.2,3.9S19,73.7,19,75.3c0,1.6-0.1,2.8-0.1,3.7h-1.1
	L16.7,79.1z M17.2,64.5c0-0.7,0-1.3,0-1.7h1.1h1.1c0,0.2,0,0.8-0.1,1.7H17.2z"/>
<path class="st0" d="M21,78.8L20.9,78c0-0.1,0-0.4-0.1-0.9c1.1,0.5,2.2,0.8,3.4,0.8c0.5,0,0.9-0.1,1.4-0.2c0.3-0.1,0.6-0.3,0.8-0.6
	c0.2-0.3,0.3-0.6,0.3-0.9c0-0.2,0-0.3-0.1-0.5s-0.1-0.3-0.2-0.5s-0.3-0.4-0.5-0.5c-0.2-0.2-0.6-0.5-1.3-1c-0.6-0.5-1.1-0.9-1.5-1.2
	c-0.3-0.3-0.6-0.6-0.8-0.9c-0.2-0.3-0.4-0.6-0.5-0.9s-0.2-0.6-0.2-0.9c0-0.5,0.2-1,0.5-1.5s0.8-0.9,1.4-1.1c0.7-0.2,1.4-0.4,2.1-0.3
	c1,0,2,0.1,3,0.3c0,0.6,0,1.2,0.1,1.7c-0.8-0.3-1.7-0.5-2.6-0.5c-0.4,0-0.9,0.1-1.3,0.2c-0.3,0.1-0.7,0.3-0.9,0.6
	c-0.2,0.2-0.3,0.5-0.3,0.8c0,0.2,0,0.4,0.1,0.6s0.2,0.4,0.3,0.6c0.2,0.2,0.4,0.4,0.6,0.6s0.7,0.6,1.3,1.1c0.5,0.4,1,0.8,1.4,1.2
	c0.2,0.2,0.5,0.5,0.6,0.8c0.2,0.3,0.3,0.5,0.4,0.8s0.1,0.6,0.1,0.8c0,0.5-0.2,1.1-0.5,1.5c-0.4,0.5-0.9,0.9-1.5,1.1
	c-0.7,0.3-1.4,0.4-2.2,0.4c-0.3,0-0.7,0-1.2-0.1s-0.9-0.1-1.2-0.2S21.4,79,21,78.8z"/>
<path class="st0" d="M41.8,79.1h-1h-1l0.1-2.3c-0.1,0.3-0.3,0.6-0.5,0.8c-0.2,0.2-0.3,0.4-0.5,0.6s-0.4,0.3-0.6,0.5
	c-0.2,0.1-0.5,0.3-0.8,0.3c-0.3,0.1-0.7,0.2-1,0.2c-0.4,0.1-0.8,0.1-1.2,0.1c-0.8,0-1.7-0.1-2.5-0.4c-0.6-0.3-1.2-0.7-1.5-1.2
	c-0.4-0.7-0.6-1.4-0.5-2.2c0-0.1,0-0.4,0-0.7s0-0.8,0.1-1.3l0.2-3.9v-1.3c0-0.3,0-0.7,0-1.1h2.1c-0.1,1.4-0.2,2.9-0.3,4.5
	s-0.2,2.7-0.2,3.2c0,0.6,0.2,1.2,0.4,1.7s0.6,0.8,1.1,1c0.6,0.2,1.2,0.3,1.8,0.3s1.1-0.1,1.7-0.3c0.4-0.2,0.8-0.4,1.2-0.7
	c0.4-0.4,0.7-0.8,0.9-1.3s0.3-1,0.4-1.6c0.1-0.5,0.1-1.3,0.2-2.4c0.1-1.4,0.1-2.9,0.1-4.3h2.1c-0.1,1.4-0.3,3.6-0.4,6.5
	C41.9,75.1,41.8,77,41.8,79.1z"/>
<path class="st0" d="M45.2,69c0.1-0.3,0.2-0.9,0.2-1.5c0.8-0.2,1.6-0.4,2.5-0.5c0.7-0.1,1.3-0.1,2-0.1s1.3,0.1,2,0.2
	c0.6,0.1,1.1,0.3,1.5,0.6c0.4,0.2,0.7,0.6,0.8,1s0.2,0.8,0.2,1.2c0,0.6,0,1.5-0.1,2.8s-0.1,2.5-0.2,3.6S54,78.4,54,79.2h-1h-1
	l0.2-3.2l0.2-3.8c-0.3,0.2-0.5,0.4-0.6,0.4c-0.2,0.1-0.3,0.2-0.5,0.2c-0.2,0.1-0.4,0.1-0.6,0.2l-1.2,0.3c-0.6,0.2-1,0.3-1.3,0.4
	c-0.4,0.1-0.9,0.3-1.3,0.5c-0.3,0.2-0.6,0.3-0.8,0.6c-0.2,0.2-0.3,0.4-0.5,0.6c-0.1,0.3-0.2,0.5-0.2,0.8c0,0.4,0.1,0.8,0.4,1.1
	c0.3,0.3,0.6,0.5,1,0.7c0.4,0.1,0.9,0.2,1.4,0.2c0.3,0,0.7,0,1-0.1c0.5-0.1,1-0.2,1.5-0.4c-0.2,0.5-0.3,0.9-0.4,1.4
	c-0.5,0.1-0.9,0.2-1.4,0.2c-0.4,0-0.7,0-1,0c-0.9,0-1.7-0.1-2.5-0.4c-0.6-0.2-1.1-0.6-1.4-1.1c-0.3-0.5-0.5-1.1-0.5-1.7
	c0-0.3,0-0.7,0.2-1c0.1-0.3,0.2-0.6,0.4-0.8c0.2-0.3,0.5-0.5,0.8-0.7c0.3-0.3,0.7-0.5,1.1-0.6c0.4-0.2,0.8-0.3,1.3-0.5
	s1.3-0.4,2.3-0.7c0.3-0.1,0.6-0.2,0.9-0.2l0.7-0.2c0.2-0.1,0.3-0.2,0.5-0.3c0.1-0.1,0.2-0.2,0.3-0.4c0.1-0.1,0.2-0.3,0.3-0.5
	s0.1-0.3,0.1-0.5c0-0.4-0.1-0.7-0.4-1c-0.3-0.3-0.6-0.5-1-0.6c-0.5-0.1-1-0.2-1.4-0.2c-0.5,0-1.1,0-1.6,0.1s-0.9,0.2-1.4,0.3
	C46.2,68.6,45.8,68.8,45.2,69z"/>
<path class="st0" d="M56.7,79.1c0.2-2.4,0.3-5.3,0.5-8.7c0.1-2.4,0.2-4.9,0.2-7.5h2.2l-0.4,7l-0.3,7V79h-1L56.7,79.1z"/>
<path class="st0" d="M66.9,79.1l0.2-2.2l0.7-8.8l0.4-5.2h3.1l0.3,1c0.1,0.3,0.2,0.6,0.3,1s0.3,1,0.6,1.9L74,71l1.8,5.7l2.4-5.7
	l2.7-6.1c0.1-0.2,0.2-0.5,0.3-0.7l0.4-1.3h3.1l-0.2,5.7l-0.1,3.7c0,0.3,0,0.7,0,1v4.3c0,0.2,0,0.7,0,1.5h-1h-1.1l0.1-1.5l0.2-8.5
	c0-1,0-2,0-3.2v-1l-5.2,12.5l-0.7,1.7h-1.1h-1.1l-1.4-4.4l-1.5-4.4L70.2,66c-0.1-0.2-0.2-0.5-0.3-1l-0.2,1.4L69,76.5
	c0,0.3,0,0.7,0,1s0,0.8,0,1.5h-1L66.9,79.1z"/>
<path class="st0" d="M97,77.2c-0.1,0.4-0.2,1-0.3,1.7c-0.7,0.2-1.3,0.3-2,0.4c-0.6,0.1-1.1,0.1-1.7,0.1c-0.9,0-1.8-0.1-2.7-0.4
	c-0.8-0.2-1.5-0.7-2-1.2c-0.5-0.6-1-1.3-1.2-2c-0.2-0.8-0.4-1.6-0.4-2.4c0-1.1,0.2-2.2,0.7-3.3c0.4-1,1.1-1.8,2-2.4
	c1-0.6,2.2-0.9,3.4-0.9c0.7,0,1.4,0.1,2.1,0.3c0.6,0.2,1.2,0.5,1.6,1c0.4,0.4,0.8,1,1,1.6c0.2,0.7,0.4,1.4,0.4,2.1
	c0,0.3,0,0.6-0.1,0.8h-9c0,0.4,0,0.8,0,1c0,0.8,0.2,1.6,0.5,2.3c0.3,0.7,0.9,1.2,1.5,1.6c0.7,0.4,1.5,0.6,2.3,0.5
	C94.6,78,95.8,77.7,97,77.2z M89,71.5h7c0-0.4,0-0.8-0.1-1.2c-0.1-0.3-0.2-0.6-0.3-0.9c-0.1-0.3-0.4-0.6-0.6-0.8
	c-0.3-0.2-0.6-0.4-0.9-0.5c-0.4-0.1-0.8-0.2-1.2-0.2c-0.4,0-0.9,0.1-1.3,0.2s-0.8,0.3-1.1,0.5c-0.3,0.2-0.6,0.5-0.8,0.8
	c-0.2,0.3-0.4,0.6-0.5,0.9C89.2,70.8,89,71.2,89,71.5z"/>
<path class="st0" d="M110.6,79.1h-1h-1l0.1-2.6c-0.2,0.3-0.4,0.7-0.7,1c-0.2,0.2-0.4,0.5-0.7,0.7c-0.3,0.2-0.6,0.4-0.9,0.6
	s-0.7,0.3-1.1,0.4c-1.1,0.3-2.3,0.2-3.4-0.3c-0.6-0.3-1.2-0.7-1.7-1.2s-0.8-1.1-1-1.8c-0.2-0.7-0.3-1.4-0.3-2.1c0-1,0.2-2,0.6-2.9
	s0.9-1.7,1.6-2.4c0.7-0.6,1.5-1.1,2.4-1.3c0.9-0.3,1.9-0.4,2.8-0.4c0.8,0,1.7,0.1,2.5,0.2c0-0.9,0-1.6,0-2.2c0-0.8,0-1.5,0-2h2.2
	l-0.3,6.7l-0.2,7.7L110.6,79.1L110.6,79.1z M108.9,68.5c-0.4-0.1-0.8-0.2-1.2-0.3c-0.3,0-0.7-0.1-1-0.1c-0.7,0-1.5,0.1-2.2,0.3
	c-0.7,0.2-1.3,0.6-1.8,1.1s-1,1.2-1.2,1.9c-0.3,0.7-0.4,1.5-0.4,2.3c0,0.7,0.1,1.4,0.4,2.1c0.3,0.6,0.7,1.1,1.2,1.5
	c0.6,0.4,1.3,0.6,2,0.5c0.4,0,0.8-0.1,1.2-0.2c0.4-0.1,0.7-0.3,1-0.5c0.3-0.3,0.6-0.6,0.9-1s0.5-0.9,0.6-1.4
	c0.2-0.6,0.3-1.3,0.3-1.9c0-0.4,0.1-1.1,0.1-2.2L108.9,68.5z"/>
<path class="st0" d="M113.3,79.1l0.2-3l0.2-5.1l0.1-3.9h2.2c-0.1,1.2-0.2,2.5-0.2,3.9c-0.1,1.3-0.1,2.8-0.2,4.4
	c0,1.6-0.1,2.8-0.1,3.7h-1.1H113.3z M113.8,64.5c0-0.7,0-1.3,0-1.7h1.2h1.1c0,0.2,0,0.8-0.1,1.7H113.8L113.8,64.5z"/>
<path class="st0" d="M118.8,69c0.1-0.3,0.2-0.9,0.2-1.5c0.8-0.2,1.6-0.4,2.5-0.5c0.7-0.1,1.3-0.1,2-0.1s1.3,0.1,2,0.2
	c0.6,0.1,1.1,0.3,1.6,0.6c0.4,0.2,0.7,0.6,0.8,1c0.1,0.4,0.2,0.8,0.2,1.2c0,0.6,0,1.5-0.1,2.8s-0.1,2.5-0.2,3.6s-0.1,2.1-0.1,2.9h-1
	h-1.1l0.2-3.2l0.2-3.8c-0.3,0.2-0.5,0.4-0.6,0.4c-0.1,0.1-0.3,0.2-0.5,0.2c-0.2,0.1-0.4,0.2-0.6,0.2l-1.2,0.3
	c-0.6,0.2-1,0.3-1.3,0.4c-0.4,0.1-0.9,0.3-1.3,0.5c-0.3,0.2-0.6,0.3-0.8,0.6c-0.2,0.2-0.3,0.4-0.4,0.6c-0.1,0.3-0.2,0.5-0.2,0.8
	c0,0.4,0.1,0.8,0.4,1.1c0.3,0.3,0.6,0.5,1,0.7c0.4,0.1,0.9,0.2,1.4,0.2c0.3,0,0.7,0,1-0.1c0.5-0.1,1-0.2,1.5-0.4
	c-0.2,0.5-0.3,0.9-0.4,1.4c-0.5,0.1-0.9,0.2-1.4,0.2c-0.4,0-0.7,0-1,0c-0.9,0-1.7-0.1-2.5-0.4c-0.6-0.2-1.1-0.6-1.4-1.1
	s-0.5-1.1-0.4-1.7c0-0.3,0-0.7,0.2-1c0.1-0.3,0.2-0.6,0.4-0.8c0.2-0.3,0.5-0.5,0.8-0.7s0.7-0.4,1.1-0.6s0.8-0.3,1.3-0.5
	s1.3-0.4,2.4-0.6c0.3-0.1,0.6-0.2,0.9-0.2l0.6-0.2c0.2-0.1,0.3-0.2,0.5-0.3c0.1-0.1,0.3-0.2,0.4-0.4c0.1-0.1,0.2-0.3,0.3-0.5
	c0.1-0.2,0.1-0.3,0.1-0.5c0-0.4-0.1-0.7-0.4-1s-0.6-0.5-1-0.6c-0.5-0.1-1-0.2-1.4-0.2c-0.5,0-1.1,0-1.6,0.1s-0.9,0.2-1.4,0.3
	C119.9,68.6,119.4,68.7,118.8,69z"/>
<path class="st0" d="M136,79.1c0.2-2,0.3-4.5,0.5-7.5s0.2-5.9,0.3-8.8h2.4l-0.4,7.5l-0.3,7.1h2.2h3.5c0.7,0,1.4,0,2-0.1
	c0,0.5-0.1,1.1-0.1,1.7h-4.8L136,79.1z"/>
<path class="st0" d="M148,69c0.1-0.3,0.1-0.9,0.2-1.5c0.8-0.2,1.6-0.4,2.5-0.5c0.7-0.1,1.3-0.1,2-0.1s1.3,0.1,2,0.2
	c0.6,0.1,1.1,0.3,1.6,0.6c0.4,0.2,0.7,0.6,0.8,1s0.2,0.8,0.2,1.2c0,0.6,0,1.5-0.1,2.8s-0.1,2.5-0.2,3.6s-0.1,2.1-0.1,2.9h-1h-1.1
	l0.3-3.2l0.2-3.8c-0.3,0.2-0.5,0.4-0.6,0.4c-0.2,0.1-0.3,0.2-0.5,0.2c-0.2,0.1-0.4,0.1-0.6,0.2l-1.2,0.3c-0.6,0.2-1,0.3-1.3,0.4
	c-0.4,0.1-0.9,0.3-1.3,0.5c-0.3,0.2-0.6,0.3-0.8,0.6c-0.2,0.2-0.3,0.4-0.4,0.6c-0.1,0.3-0.2,0.5-0.2,0.8c0,0.4,0.1,0.8,0.4,1.1
	c0.3,0.3,0.6,0.5,1,0.7c0.4,0.1,0.9,0.2,1.4,0.2c0.3,0,0.7,0,1-0.1c0.5-0.1,1-0.2,1.5-0.4c-0.2,0.5-0.3,0.9-0.4,1.4
	c-0.5,0.1-0.9,0.2-1.4,0.2c-0.4,0-0.7,0-1,0c-0.9,0-1.7-0.1-2.5-0.4c-0.6-0.2-1.1-0.6-1.4-1.1c-0.3-0.5-0.5-1.1-0.4-1.7
	c0-0.3,0-0.7,0.2-1c0.1-0.3,0.2-0.6,0.4-0.8c0.2-0.3,0.5-0.5,0.8-0.7s0.7-0.4,1.1-0.6c0.4-0.2,0.8-0.3,1.3-0.5s1.3-0.4,2.4-0.6
	c0.4-0.1,0.6-0.2,0.9-0.2l0.6-0.2c0.2-0.1,0.3-0.2,0.5-0.3c0.1-0.1,0.3-0.2,0.4-0.4c0.1-0.1,0.2-0.3,0.3-0.5s0.1-0.3,0.1-0.5
	c0-0.4-0.1-0.7-0.4-1c-0.3-0.3-0.6-0.5-1-0.6c-0.5-0.1-1-0.2-1.4-0.2c-0.5,0-1.1,0-1.6,0.1s-0.9,0.2-1.4,0.3
	C149,68.6,148.6,68.8,148,69z"/>
<path class="st0" d="M159.6,79.1l0.1-1.3c0-0.2,0-0.7,0.1-1.3l0.3-8l0.1-5.6h2.2c-0.1,1-0.2,2.5-0.3,4.4c0.8-0.2,1.5-0.3,2-0.4
	s1-0.1,1.6-0.1c0.9,0,1.8,0.1,2.6,0.4c0.7,0.2,1.4,0.7,1.9,1.3c0.5,0.6,0.8,1.2,1.1,1.9c0.2,0.7,0.3,1.5,0.3,2.2
	c0,0.9-0.1,1.8-0.4,2.6c-0.2,0.8-0.6,1.6-1.1,2.3c-0.5,0.6-1.1,1.1-1.8,1.4s-1.6,0.5-2.4,0.4c-0.4,0-0.9,0-1.3-0.2
	c-0.4-0.1-0.7-0.2-1.1-0.4c-0.3-0.2-0.6-0.4-0.8-0.6s-0.4-0.4-0.6-0.7c-0.2-0.3-0.3-0.6-0.5-0.9V79h-1L159.6,79.1z M162,68.8
	c-0.1,1.3-0.1,2.2-0.1,2.6s0,0.9,0,1.5c0,1,0.1,1.9,0.4,2.9c0.3,0.6,0.7,1.2,1.3,1.5s1.3,0.5,1.9,0.5c0.8,0,1.5-0.2,2.1-0.6
	c0.7-0.5,1.1-1.2,1.4-1.9c0.3-0.9,0.5-1.8,0.5-2.7c0.1-1.1-0.3-2.3-1-3.2c-0.8-0.8-2-1.3-3.1-1.2c-0.5,0-1,0-1.5,0.1
	C163.3,68.5,162.6,68.6,162,68.8z"/>
</svg>
